<?xml version="1.0" encoding="utf-8"?>
<!-- Generator: Adobe Illustrator 18.1.1, SVG Export Plug-In . SVG Version: 6.00 Build 0)  -->
<svg version="1.1" id="Layer_1" xmlns="http://www.w3.org/2000/svg" xmlns:xlink="http://www.w3.org/1999/xlink" x="0px" y="0px"
	 viewBox="0 0 334.5 334.5" enable-background="new 0 0 334.5 334.5" xml:space="preserve">
<path fill="#F9B233" d="M178.7,77.5c-29,0-52.7,23.6-52.7,52.7c0,11.5,3.7,22.5,10.6,31.7l39.3,58.4c0.6,0.9,1.7,1.5,2.8,1.5
	s2.2-0.6,2.8-1.5l39.3-58.4c6.9-9.2,10.6-20.1,10.6-31.7C231.4,101.1,207.8,77.5,178.7,77.5z"/>
<path fill="#ED6EA6" d="M217.1,126.4c-0.8-0.7-1.8-1.1-3.1-1.1c-1.2,0-2.4,0.4-3.3,0.7c0-0.9-0.4-1.8-1.5-2.4c0.4-0.4,1.4-1.5,0-3
	c-0.6-0.7-0.8-1.4-0.9-2.1c-0.1-0.9-0.4-2.1-1.8-2.2c-0.2,0-0.7-0.2-1.3-0.3c-2.5-0.7-7.6-2-13.1-2c-1.3,0-2.5,0.1-3.7,0.2
	c-2.2-0.4-5.9-1.4-6.4-4.1c-0.5-2.4-1.2-3.5-2.2-3.5c-0.4,0-0.8,0.2-1,0.6c-0.5,0.8-0.3,2.2,0.5,3.4c0.5,0.8,0.2,1.6,0,2.1
	c-0.7,1.2-2.2,1.9-3.8,1.9c-0.5,0-1-0.1-1.5-0.2c-0.8-0.2-1.5-0.3-2-0.3c-1.9,0-2,1-2,1.3c0,1.3,2.2,2.1,5.6,2.1l0.3,0
	c0.8,0,2,0.1,2.5,0.6c-0.7,0.5-1.3,1.1-1.9,1.7c-1.6-0.5-6.6-1.9-9.7-2c-0.6-0.9-2.1-2.8-4.4-2.8c-0.4,0-0.8,0-1.1,0.1
	c-2.6,0.7-3.4,2.9-3.5,4.3c-1.6,0.8-6.2,3.3-6.2,6.1c0,0.2,0,0.4,0.1,0.6c-1.3-0.2-7.8-2.2-8.9-6.8c-0.4-1.9-1.2-2.8-2.2-2.8
	c-0.8,0-1.5,0.6-1.8,1.7c-0.5,1.5-0.2,3.6,1.6,4.8c1.9,1.3,3.2,2.7,3.8,3.5c-1.3,0.4-3.8,1.1-6,1.1c-1.3,0-2.3-0.2-3-0.6
	c-0.6-0.3-1.1-0.5-1.7-0.5c-1.3,0-2.3,0.9-2.3,2c0,0.8,0.5,1.6,1.5,2.1c1.8,0.9,4.9,1,9.1,0.3c1.4-0.3,2.6-0.4,3.4-0.4
	c1.3,0,1.7,0.3,1.8,0.4c0.2,0.7-1.7,3-4.1,4.9l-0.1,0.1c-0.2,0.2-1.3,1.3-0.9,2.4c0.3,0.7,1,1.1,2.1,1.1c1.7,0.1,2.7-1.5,3.6-3.1
	c0.9-1.4,1.8-2.9,3-2.9c0.2,0,0.4,0,0.6,0.1c1.7,0.5,2.1,1.8,2.4,3c0.2,0.9,0.5,2,1.7,2c0.2,0,0.5,0,0.7-0.1
	c0.4-0.2,0.7-0.4,0.9-0.8c0.4-0.9-0.1-2.1-0.6-3.5c-0.4-1.1-0.9-2.3-0.8-3.2c3.9,3.3,10.5,7.5,14,7.7c0.8,1.1,3.6,4.3,8.3,4.8
	c-0.1,0.2-0.2,0.4-0.4,0.6c-0.6,0.7-1.8,1-3.5,0.9l-6.2-3.3c-0.3-0.3-1-1-1.8-1c-0.4,0-1.2,0.2-1.6,1.3c-0.2,0.5-0.2,1,0,1.5
	c0.4,0.9,1.3,1.6,2.3,2.1c-1.1,0.3-2.4,0.6-3.5,0.6c-0.6,0-1-0.1-1.2-0.2c-1.3-0.6-2.4-0.9-3.1-0.9c-1.2,0-1.9,0.7-1.9,1.8
	c0,2.1,1.7,2.4,3.1,2.4c0,0,0,0,0,0c-0.3,0.4-0.3,0.8-0.2,1.2c0.3,1,1.1,1.6,2.2,1.6c1.3,0,2.6-0.7,3.3-1.1c0,0,0.2-0.1,0.5-0.1
	c0.5,0,1.3,0.1,2.1,0.3c1.3,0.2,3,0.5,4.8,0.5c2.8,0,5.2-0.6,7.6-1.8c0.9-0.5,1.7-0.9,2.5-1.3c3.5-1.8,5.4-2.7,5.6-4.4
	c0.1-0.4,0-0.7-0.1-1.1c0.7,0.2,1.6,0.3,2.5,0.3c1.9,0,3.7-0.6,5.3-1.8c-0.2,1.6-0.3,3.6,0.7,5c0.3,0.4,0.6,0.7,1,1
	c-1.6,0.6-3.3,1.4-3.9,2.3c-0.3,0.5-0.2,0.9-0.2,1.1c0.1,0.4,0.5,1.1,1.8,1.1c1.3,0,3.1-0.7,4.5-1.2c-0.5,1.6-1.3,3.4-2.3,3.7
	c-2,0.6-2.9,1.3-2.9,2.3c0,0.7,0.6,1.3,1.7,1.7c0.2,0.1,0.5,0.1,0.7,0.1c1.7,0,4.1-1.8,6.2-3.6c0,0.4,0.2,0.9,0.4,1.2
	c0.3,0.4,0.8,0.9,1.7,0.9c0,0,0.1,0,0.1,0c0.6,0,1.1-0.2,1.4-0.7c1.2-1.3,0.9-4.4,0.8-5.5c0.6-1.1,3.2-5.9,5.5-10.9
	c1.5-3.3,2.7-6.1,3.4-8.2C217.8,128.9,217.9,127.2,217.1,126.4z"/>
</svg>
