<?xml version="1.0" encoding="utf-8"?>
<!-- Generator: Adobe Illustrator 18.1.1, SVG Export Plug-In . SVG Version: 6.00 Build 0)  -->
<svg version="1.1" id="Layer_1" xmlns="http://www.w3.org/2000/svg" xmlns:xlink="http://www.w3.org/1999/xlink" x="0px" y="0px"
	 viewBox="0 0 334.5 334.5" enable-background="new 0 0 334.5 334.5" xml:space="preserve">
<path fill="#F9B233" d="M178.7,77.5c-29,0-52.7,23.6-52.7,52.7c0,11.5,3.7,22.5,10.6,31.7l39.3,58.4c0.6,0.9,1.7,1.5,2.8,1.5
	s2.2-0.6,2.8-1.5l39.3-58.4c6.9-9.2,10.6-20.1,10.6-31.7C231.4,101.1,207.8,77.5,178.7,77.5z"/>
<path fill="#ED6EA6" d="M218.6,128.8c0,0-13.7-11.2-24.9-11c0,0-5.2-7.2-16.3-5.7l-1.7,3.5l1.7,1.1L175,117l-8.5,6.3l3.1,1.5
	l-3.3,0.4c0,0-18.1-14.4-25.6-12.6c0,0,3,13.2,8.5,16.6c0,0-10.8,6.7-11.9,12.5c0,0,22,2.7,29.2-7.2l3.5,1.7c0,0-7.6,2-8.5,5.8
	c0,0,11.4,4.1,15.4-0.9l6.7,1.1l-5.7,6.5c0,0,11.5,3.5,16.6-5.8c0,0,13.3,1.1,22.2-11C216.8,132,219.7,132.3,218.6,128.8z"/>
</svg>
