<?xml version="1.0" encoding="utf-8"?>
<!-- Generator: Adobe Illustrator 18.1.1, SVG Export Plug-In . SVG Version: 6.00 Build 0)  -->
<svg version="1.1" id="Layer_1" xmlns="http://www.w3.org/2000/svg" xmlns:xlink="http://www.w3.org/1999/xlink" x="0px" y="0px"
	 viewBox="0 0 334.5 334.5" enable-background="new 0 0 334.5 334.5" xml:space="preserve">
<path fill="#F9B233" d="M168.1,77.5c-29,0-52.7,23.6-52.7,52.7c0,11.5,3.7,22.5,10.6,31.7l39.3,58.4c0.6,0.9,1.7,1.5,2.8,1.5
	s2.2-0.6,2.8-1.5l39.3-58.4c6.9-9.2,10.6-20.1,10.6-31.7C220.7,101.1,197.1,77.5,168.1,77.5z"/>
<path fill="#ED6EA6" d="M194.6,124.9l-4.7-2.6c0,0,1.7-6,8.1-5.1c6.4,0.9,8.6,1.3,8.4,0.1c-0.1-1.1-4.4-2.4-4.4-2.4s6.9-1.6,5.4-3.1
	c-1.4-1.6-4.9,0.3-4.9,0.3s2.1-2.6,0.1-3.4s-3.3,3.7-3.3,3.7s1.3-3.7-1.3-3.4c-2.6,0.3-0.4,3.4-0.4,3.4l-1.4,1.3l-7.7-0.4l-5,6.4
	c0,0-9.4-5.6-28.3-3.3c0,0,3.1-5.4-1.7-6.6s-4.7-1-2.9-3.6c1.9-2.6-1.1-1.6-2.3,0c0,0-0.7-4.6-2-2.7c-1.3,1.9,0,3,0,3
	s-4.6-3.4-3.7-1c0.9,2.4,0.9,2.4,0.9,2.4s-4.3-0.6-2,0.4s3.3,0.6,3.3,0.6s-3,3.1-1.6,2.4s3.9-1,3.9-1l2.6,1l0.4,4.9l-1.1,1.3
	c0,0-5.4-2.1-9-1.4c-3.6,0.7-1.4-3.1-5.3-1.1s-2.7,2.9-2.7,2.9s-6,0-6,2.7c0,2.7,11.6,9.4,16.9,7.6c5.3-1.9,7.7,0.3,7.7,0.3
	s5.1,0.1,4.2,6.7c0,0-0.5,2.1-3.4,1.4c-2.9-0.7-0.4,2.1,2,1.7c0,0-3.1,1.7-1.9,2.3s3.2-0.7,3.2-0.7s-1.9,3.3,0,3.4
	c1.9,0.1,1.9-3.7,1.9-3.7s0.7,3.3,2.4,2.3s-1-4.1-1-4.1l-0.3-3.3l1.9-3.4l-1.4-2.6l21.2,0.3c0,0-8,3-3.9,5.3
	c4.1,2.3,6.6,2.4,6.6,2.4s-5.6,2.6-3.7,3.7c1.9,1.1,4-0.7,4-0.7s-2.1,3.7,0,3.9c2.1,0.1,1.7-2.4,1.7-2.4s2.4,2.9,4.4,1.7
	c2-1.1-1-3-1-3l-1.7-2.4c0,0,4.9,0.7,4.9-1.3s-3.1-1.4-3.1-1.4l-7.7-2.4c0,0,7.1,2.7,7.7-2.5"/>
<path fill="#ED6EA6" d="M205.1,135.8c-0.4-1.8-1.1-3.4-2-4.8c-1.8-2.7-3.9-4.4-5.8-5.7c-1.9-1.3-3.6-2.1-5.1-2.8
	c-1.4-0.7-2.6-1.1-3.3-1.4c-0.8-0.3-1.2-0.4-1.2-0.4c0,0-0.1,0-0.2-0.1c-2.1-0.7-4.4,0.5-5,2.6c-0.7,2.1,0.5,4.4,2.6,5
	c0,0,0.4,0.1,1.1,0.3c0.7,0.2,1.7,0.5,2.9,1c1.2,0.5,2.6,1.1,4.1,2c1.4,0.9,2.9,2,3.9,3.4c1,1.4,1.5,2.9,1.1,4.8
	c-0.2,1-0.5,2-1.1,3.1c-0.2,0.5-0.6,1.1-0.9,1.6c-0.4,0.5-0.7,1.1-1.2,1.6l-0.7,0.8l-0.2,0.2l-0.1,0.1l0,0.1l0,0c0.1-0.1,0,0,0,0
	l-0.4,0.4c-0.5,0.6-1,1.2-1.6,1.7l-0.8,0.9l-0.8,0.8c-0.5,0.5-1.1,1.1-1.6,1.6c-2.2,2.1-4.6,4.1-7.2,5.7c-2.6,1.6-5.3,2.8-8,3.3
	c-2.7,0.5-5.4,0.2-7.8-0.8c-2.4-1-4.5-2.7-6.3-4.6c-0.8-0.9-1.4-1.8-1.7-2.7c-0.2-0.8-0.2-1.4,0.1-2c0.3-0.6,1-1.1,1.7-1.5
	c0.8-0.4,1.6-0.7,2.5-0.8c1.9-0.4,4-0.3,5.9,0.4c1,0.4,1.5,1.6,2.7,1.6c0.9,0,1.7-0.7,1.8-1.6c0.1-1-0.6-1.8-1.4-2.3
	c-2.8-1.9-6.3-2.4-9.6-1.9c-1.1,0.2-2.3,0.5-3.6,1c-1.2,0.6-2.6,1.4-3.5,3c-1,1.5-1.2,3.7-0.7,5.4c0.5,1.7,1.4,3.1,2.4,4.4
	c2,2.3,4.4,4.6,7.6,6.1c3.2,1.5,7,2.1,10.6,1.6c3.6-0.5,7-1.9,10.1-3.6c3.1-1.7,5.8-3.9,8.4-6.1c0.6-0.6,1.3-1.2,1.9-1.7l0.9-0.9
	l0.8-0.8c0.6-0.6,1.1-1.1,1.6-1.7l0.4-0.4l0.5-0.5l0.8-0.9c0.6-0.6,1.1-1.3,1.6-2c0.5-0.7,1-1.4,1.4-2.2c0.9-1.5,1.6-3.2,2-4.9
	C205.4,139.5,205.4,137.6,205.1,135.8z"/>
</svg>
