<?xml version="1.0" encoding="UTF-8"?>
<!DOCTYPE svg PUBLIC "-//W3C//DTD SVG 1.1//EN" "http://www.w3.org/Graphics/SVG/1.1/DTD/svg11.dtd">
<svg version="1.1" xmlns="http://www.w3.org/2000/svg" xmlns:xlink="http://www.w3.org/1999/xlink" x="0" y="0" width="150" height="150" viewBox="0, 0, 150, 150">
  <g id="Background">
    <rect x="0" y="0" width="150" height="150" fill="#FFFFFF" fill-opacity="0"/>
  </g>
  <g id="Layer_1">
    <g>
      <path d="M75,150 C33.579,150 -0,116.421 -0,75 C-0,33.579 33.579,-0 75,-0 C116.421,-0 150,33.579 150,75 C150,116.421 116.421,150 75,150 z" fill="#F39C12"/>
      <g>
        <path d="M71.139,100 C57.332,100 46.139,88.807 46.139,75 C46.139,61.193 57.332,50 71.139,50 C84.946,50 96.139,61.193 96.139,75 C96.139,88.807 84.946,100 71.139,100 z" fill="#FFFFFF"/>
        <path d="M76.366,82.091 L104.361,100.5" fill-opacity="0" stroke="#FFFFFF" stroke-width="10"/>
        <path d="M71.139,89.063 C63.372,89.063 57.076,82.767 57.076,75 C57.076,67.233 63.372,60.938 71.139,60.938 C78.905,60.938 85.201,67.233 85.201,75 C85.201,82.767 78.905,89.063 71.139,89.063 z" fill="#F39C12"/>
      </g>
    </g>
  </g>
</svg>
