<?xml version="1.0" encoding="UTF-8"?>
<!DOCTYPE svg PUBLIC "-//W3C//DTD SVG 1.1//EN" "http://www.w3.org/Graphics/SVG/1.1/DTD/svg11.dtd">
<svg version="1.1" xmlns="http://www.w3.org/2000/svg" xmlns:xlink="http://www.w3.org/1999/xlink" x="0" y="0" width="350" height="500" viewBox="0, 0, 350, 500">
  <g id="Background">
    <rect x="0" y="0" width="350" height="500" fill="#FFFFFF" fill-opacity="0"/>
  </g>
  <g id="Layer_1">
    <path d="M159.385,483.116 C159.314,483.794 19.283,247.442 19.283,166.91 C19.283,86.378 84.567,21.094 165.099,21.094 C245.63,21.094 310.914,86.378 310.914,166.91 C310.914,247.442 159.455,482.439 159.385,483.116 z" fill="#F9F6E5"/>
    <path d="M166.221,290.159 C97.075,290.159 41.021,233.895 41.021,164.49 C41.021,95.086 97.075,38.822 166.221,38.822 C235.367,38.822 291.421,95.086 291.421,164.49 C291.421,233.895 235.367,290.159 166.221,290.159 z" fill="#A6C0E0"/>
    <g>
      <path d="M89.672,105.652 C93.503,101.689 108.825,97.727 112.655,101.689 C116.486,105.652 112.655,117.539 112.655,117.539 L89.672,121.501 C89.672,121.501 85.842,109.614 89.672,105.652 z" fill="#D2D7D3"/>
      <path d="M77.436,117.04 C85.097,109.115 242.15,105.153 253.641,117.04 C265.133,128.927 265.133,208.174 253.641,220.061 C242.15,231.948 88.927,231.948 77.436,220.061 C65.944,208.174 69.774,124.965 77.436,117.04 z" fill="#6C7989"/>
      <path d="M189.479,207.031 z" fill="#6C7A89"/>
      <path d="M204.802,210.993 C186.819,210.993 172.242,195.914 172.242,177.314 C172.242,158.713 186.819,143.634 204.802,143.634 C222.784,143.634 237.361,158.713 237.361,177.314 C237.361,195.914 222.784,210.993 204.802,210.993 z" fill="#ABB7B7"/>
      <path d="M243.12,104.629 C239.523,98.599 208.433,98.634 206.174,103.758 C203.916,108.883 205.159,119.784 207.138,122.367 C209.118,124.95 239.237,129.49 242.878,124.606 C246.518,119.722 246.717,110.659 243.12,104.629 z" fill="#ABB7B7"/>
      <path d="M240.984,106.828 C237.964,102.337 211.359,102.688 209.376,106.559 C207.393,110.431 208.351,118.603 210.019,120.522 C211.688,122.441 237.418,125.535 240.581,121.83 C243.744,118.125 244.003,111.318 240.984,106.828 z" fill="#F5D76E"/>
    </g>
    <path d="M204.405,213.649 C183.186,213.649 165.985,196.448 165.985,175.229 C165.985,154.01 183.186,136.809 204.405,136.809 C225.624,136.809 242.825,154.01 242.825,175.229 C242.825,196.448 225.624,213.649 204.405,213.649 z" fill="#D2D7D3"/>
    <path d="M204.405,207.886 C186.369,207.886 171.748,193.265 171.748,175.229 C171.748,157.193 186.369,142.572 204.405,142.572 C222.441,142.572 237.062,157.193 237.062,175.229 C237.062,193.265 222.441,207.886 204.405,207.886 z" fill="#ABB7B7"/>
  </g>
</svg>
