<?xml version="1.0" encoding="UTF-8"?>
<!DOCTYPE svg PUBLIC "-//W3C//DTD SVG 1.1//EN" "http://www.w3.org/Graphics/SVG/1.1/DTD/svg11.dtd">
<svg version="1.1" xmlns="http://www.w3.org/2000/svg" xmlns:xlink="http://www.w3.org/1999/xlink" x="0" y="0" width="612" height="792" viewBox="0, 0, 612, 792">
  <g id="Background">
    <rect x="0" y="0" width="612" height="792" fill="#FFFFFF"/>
  </g>
  <g id="Layer_1">
    <path d="M299.164,714.626 C299.094,715.304 159.062,478.952 159.062,398.42 C159.062,317.888 224.346,252.604 304.878,252.604 C385.41,252.604 450.694,317.888 450.694,398.42 C450.694,478.952 299.235,713.948 299.164,714.626 z" fill="#F9F6E5"/>
    <path d="M306,521.668 C236.854,521.668 180.8,465.405 180.8,396 C180.8,326.595 236.854,270.332 306,270.332 C375.146,270.332 431.2,326.595 431.2,396 C431.2,465.405 375.146,521.668 306,521.668 z" fill="#B0A492"/>
    <g>
      <path d="M229.451,337.161 C233.282,333.199 248.604,329.237 252.435,333.199 C256.265,337.161 252.435,349.048 252.435,349.048 L229.451,353.011 C229.451,353.011 225.621,341.124 229.451,337.161 z" fill="#D2D7D3"/>
      <path d="M217.215,348.55 C224.876,340.625 381.929,336.663 393.421,348.55 C404.912,360.437 404.912,439.683 393.421,451.57 C381.929,463.457 228.707,463.457 217.215,451.57 C205.723,439.683 209.554,356.474 217.215,348.55 z" fill="#6C7989"/>
      <path d="M329.259,438.541 z" fill="#6C7A89"/>
      <path d="M344.581,442.503 C326.599,442.503 312.021,427.424 312.021,408.823 C312.021,390.222 326.599,375.143 344.581,375.143 C362.563,375.143 377.141,390.222 377.141,408.823 C377.141,427.424 362.563,442.503 344.581,442.503 z" fill="#ABB7B7"/>
      <path d="M382.9,336.139 C379.303,330.109 348.212,330.143 345.954,335.268 C343.695,340.393 344.939,351.294 346.918,353.877 C348.897,356.46 379.017,360.999 382.657,356.115 C386.298,351.231 386.497,342.169 382.9,336.139 z" fill="#ABB7B7"/>
      <path d="M380.763,338.337 C377.744,333.847 351.138,334.197 349.155,338.069 C347.173,341.941 348.13,350.113 349.799,352.032 C351.467,353.951 377.197,357.045 380.36,353.339 C383.523,349.634 383.782,342.827 380.763,338.337 z" fill="#F5D76E"/>
    </g>
    <path d="M344.184,445.158 C322.966,445.158 305.764,427.957 305.764,406.738 C305.764,385.52 322.966,368.319 344.184,368.319 C365.403,368.319 382.604,385.52 382.604,406.738 C382.604,427.957 365.403,445.158 344.184,445.158 z" fill="#D2D7D3"/>
    <path d="M344.184,439.395 C326.148,439.395 311.527,424.774 311.527,406.738 C311.527,388.703 326.148,374.082 344.184,374.082 C362.22,374.082 376.841,388.703 376.841,406.738 C376.841,424.774 362.22,439.395 344.184,439.395 z" fill="#ABB7B7"/>
  </g>
</svg>
