<?xml version="1.0" encoding="utf-8"?>
<!-- Generator: Adobe Illustrator 18.1.1, SVG Export Plug-In . SVG Version: 6.00 Build 0)  -->
<svg version="1.1" id="Layer_1" xmlns="http://www.w3.org/2000/svg" xmlns:xlink="http://www.w3.org/1999/xlink" x="0px" y="0px"
	 viewBox="0 0 334.5 334.5" enable-background="new 0 0 334.5 334.5" xml:space="preserve">
<path fill="#F9B233" d="M168.1,77.5c-29,0-52.7,23.6-52.7,52.7c0,11.5,3.7,22.5,10.6,31.7l39.3,58.4c0.6,0.9,1.7,1.5,2.8,1.5
	s2.2-0.6,2.8-1.5l39.3-58.4c6.9-9.2,10.6-20.1,10.6-31.7C220.7,101.1,197.1,77.5,168.1,77.5z"/>
<path fill="#ED6EA6" d="M133.2,110.4c0.1-0.2,0.2-0.4,0.3-0.5c-1.2-0.4-2.5-0.9-3.7-1.3c0-0.1,0-0.2,0-0.3c0.7-0.3,1.3-0.7,2-0.7
	c8.3-0.2,16.7-0.5,25-1.6c3.3-0.4,6.5-0.2,9.8,0.4c0.2,0,0.4,0.1,0.7,0.2c1,0.3,1.7,0.8,2,2c0.7,2.8,2.4,5,4.5,6.9
	c0.6,0.5,1.2,1.1,1.8,1.5c0.8,0.5,1.7,1,2.7,1.2c3.1,0.6,6.2,0.3,9.2-0.4c3.2-0.7,6,0,8.2,2.5c0.9,1,2.1,1.4,3.3,1.5
	c1,0.1,1.9,0.4,2.6,1.2c0.4,0.5,0.7,1.1,0.6,1.9c-1.3-0.3-2.4-0.5-3.6-0.8c-1.7-0.4-3.4-0.2-5,0.6c-0.8,0.4-1.6,0.9-2.6,1.5
	c0.9,0.3,1.7,0.6,2.5,0.8c1.5,0.5,3.1,1,4.6,1.6c1.2,0.4,2,1.2,2.6,2.3c1,1.8,2.1,3.6,3.1,5.5c1.1,1.9,1.4,4,1.7,6
	c0.2,1.4,0.6,2.8,0.8,4.2c0.2,2,0.2,4.1,0.1,6.1c-0.1,1-0.7,2-1.1,3c-0.1,0.2-0.3,0.4-0.4,0.4c-1.1,0-2.2,0.4-3.1-0.5
	c-0.4-0.4-1-0.5-1.2-1.2c-0.1-0.3-0.7-0.5-1.1-0.7c-0.3-0.2-0.5-0.4-0.8-0.6c-0.3-0.3-0.6-0.7-1-1c-0.6-0.4-1.1-0.9-1.6-1.4
	c-0.5-0.5-1.2-0.7-1.6-1.4c-0.6-0.9-1.2-1.8-1.8-2.8c-0.7,0.1-1.3-0.3-1.7-1.3c-0.1-0.2-0.3-0.4-0.6-0.5c-0.7-0.3-1.2-0.8-1.5-1.6
	c-0.1-0.3-0.4-0.4-0.6-0.7c-0.2-0.3-0.5-0.6-0.7-0.9c-0.1-0.2-0.1-0.5-0.3-0.6c-0.5-0.4-1-0.9-1.6-1.2c-0.8-0.3-1.4-1-2.1-1.2
	c-0.9-0.4-1.7-0.8-2.6-1.3c-0.7-0.4-1.4-0.7-2-1.2c-0.6-0.5-1.2-1-2-1.4c-0.3-0.1-0.7-0.2-0.9-0.1c-5.3,1.9-10.8,2.7-16.5,2.4
	c-0.2,0-0.5-0.1-0.7,0c-1.8,1.2-4,1.1-5.8,2.3c-0.8,0.5-2,0.6-3.1,0.6c-1.4,0-2.9-0.1-4.3-0.2c-0.5,0-1-0.2-1.5-0.3
	c0.2-0.7,0-1.1-0.6-1.4c-0.6-0.3-0.6-1-0.6-1.7c0-0.2-0.2-0.4-0.2-0.6c-0.2-0.4-0.6-0.9-0.5-1.3c0.1-0.4,0.6-0.7,1-0.8
	c1.1-0.3,2.2-0.5,3.3-0.7c2.7-0.6,5.3-1.2,7.9-1.9c2-0.5,3.3-1.5,3.8-2.5c0-0.5-0.2-1-0.1-1.5c0.1-1,0.4-1.9-0.6-2.8
	c-0.7-0.6-1.2-1.6-1.9-2.3c-0.8-0.9-1.7-1.7-2.6-2.5c-1.4-1.2-2.8-2.5-4.2-3.6c-0.8-0.7-1.8-1.1-2.6-1.7c-0.4-0.3-0.6-0.7-0.9-1
	c-0.1-0.1-0.2-0.2-0.3-0.2c-1.1-0.2-2.2-0.2-3.3-0.4c-0.8-0.1-1.5-0.4-2.3-0.6c-0.3-0.1-0.6-0.3-1-0.3c-1-0.1-2-0.2-3-0.3
	c-0.1,0-0.2,0-0.2,0C135,110.1,133.9,110.8,133.2,110.4z"/>
</svg>
