<?xml version="1.0" encoding="UTF-8"?>
<!DOCTYPE svg PUBLIC "-//W3C//DTD SVG 1.1//EN" "http://www.w3.org/Graphics/SVG/1.1/DTD/svg11.dtd">
<svg version="1.1" xmlns="http://www.w3.org/2000/svg" xmlns:xlink="http://www.w3.org/1999/xlink" x="0" y="0" width="150" height="150" viewBox="0, 0, 150, 150">
  <g id="Background">
    <rect x="0" y="0" width="150" height="150" fill="#FFFFFF"/>
  </g>
  <g id="Layer_1">
    <path d="M37.089,45.023 C39.089,43.023 47.089,41.023 49.089,43.023 C51.089,45.023 49.089,51.023 49.089,51.023 L37.089,53.023 C37.089,53.023 35.089,47.023 37.089,45.023 z" fill="#D2D7D3"/>
    <path d="M30.7,50.771 C34.7,46.771 116.7,44.771 122.7,50.771 C128.7,56.771 128.7,96.771 122.7,102.771 C116.7,108.771 36.7,108.771 30.7,102.771 C24.7,96.771 26.7,54.771 30.7,50.771 z" fill="#6C7A89"/>
    <path d="M89.2,96.195 z" fill="#6C7A89"/>
    <path d="M97.2,101.195 C86.154,101.195 77.2,92.24 77.2,81.195 C77.2,70.149 86.154,61.195 97.2,61.195 C108.246,61.195 117.2,70.149 117.2,81.195 C117.2,92.24 108.246,101.195 97.2,101.195 z" fill="#D2D7D3"/>
    <path d="M97.2,98.195 C87.811,98.195 80.2,90.583 80.2,81.195 C80.2,71.806 87.811,64.195 97.2,64.195 C106.589,64.195 114.2,71.806 114.2,81.195 C114.2,90.583 106.589,98.195 97.2,98.195 z" fill="#ABB7B7"/>
    <path d="M117.207,44.507 C115.329,41.463 99.096,41.481 97.917,44.067 C96.738,46.654 97.387,52.156 98.42,53.46 C99.454,54.764 115.179,57.055 117.08,54.59 C118.981,52.125 119.085,47.551 117.207,44.507 z" fill="#ABB7B7"/>
    <path d="M116.091,45.617 C114.515,43.35 100.624,43.527 99.588,45.481 C98.553,47.435 99.053,51.56 99.924,52.529 C100.796,53.498 114.23,55.059 115.881,53.189 C117.533,51.319 117.668,47.883 116.091,45.617 z" fill="#F5D76E"/>
  </g>
</svg>
