<?xml version="1.0" encoding="utf-8"?>
<!-- Generator: Adobe Illustrator 18.1.1, SVG Export Plug-In . SVG Version: 6.00 Build 0)  -->
<svg version="1.1" id="Layer_1" xmlns="http://www.w3.org/2000/svg" xmlns:xlink="http://www.w3.org/1999/xlink" x="0px" y="0px"
	 viewBox="0 0 334.5 334.5" enable-background="new 0 0 334.5 334.5" xml:space="preserve">
<path fill="#F9B233" d="M168.1,77.5c-29,0-52.7,23.6-52.7,52.7c0,11.5,3.7,22.5,10.6,31.7l39.3,58.4c0.6,0.9,1.7,1.5,2.8,1.5
	s2.2-0.6,2.8-1.5l39.3-58.4c6.9-9.2,10.6-20.1,10.6-31.7C220.7,101.1,197.1,77.5,168.1,77.5z"/>
<path fill="#ED6EA6" d="M183.4,101.2c-7.4-1.2-7,4.3-7,4.3c-2.2-1.5-7.6-0.6-7.6-0.6l0,0.2l-1.4-0.2c0,0-5.4-0.9-7.6,0.6
	c0,0,0.4-5.5-7-4.3c-7.4,1.2-21,7-24.8,11.9c0,0,0.2,7.7,2.2,8.9c2,1.2,4.5,0.6,4.5,0.6s-0.5,4.3,3.5,5.1c4,0.8,1.6,6.5,5.7,7.6
	c4.1,1.1,3.9,5.6,8,4s4.8-2.6,4.8-2.6s-5.5,13.9,1.7,25.5c0,0-3.1-18.9,2-22.5c0,0,3.8,14,3.1,19.2c-0.8,5.2-2.7,27.4,3.8,27.6
	s5-6.4,5-6.4l-2.4-0.2l-1.6-0.4c0.1-6.9,2.7-20.8,2.7-20.8c0.5-5.9,4.5-19,4.5-19c5,3.5,2,22.5,2,22.5c7.2-11.6,1.7-25.5,1.7-25.5
	s0.8,1,4.8,2.6c4,1.6,3.8-3,8-4c4.1-1.1,1.7-6.8,5.7-7.6c4-0.8,3.5-5.1,3.5-5.1s2.6,0.6,4.5-0.6c2-1.2,2.2-8.9,2.2-8.9
	C204.4,108.2,190.8,102.4,183.4,101.2z"/>
</svg>
